<svg xmlns="http://www.w3.org/2000/svg" width="346.667" height="346.667" preserveAspectRatio="xMidYMid meet" version="1.0" viewBox="0 0 260 260"><metadata>Created by potrace 1.14, written by Peter Selinger 2001-2017</metadata><g fill="#000" stroke="none"><path d="M1873 1405 c-112 -31 -184 -89 -224 -180 -34 -74 -32 -200 2 -275 40 -85 107 -144 229 -201 247 -116 272 -134 272 -203 0 -74 -50 -116 -147 -124 -89 -7 -144 16 -214 86 -48 50 -55 54 -74 43 -11 -7 -36 -22 -56 -33 -38 -21 -103 -59 -110 -65 -8 -6 52 -83 99 -127 95 -88 196 -120 371 -114 113 3 119 4 195 43 129 66 179 153 177 306 -2 160 -71 245 -283 346 -191 91 -199 95 -223 121 -16 18 -22 36 -22 72 0 57 21 85 76 101 58 18 105 4 155 -47 51 -50 40 -52 155 23 38 24 69 48 69 52 0 17 -69 98 -106 123 -22 15 -59 34 -84 43 -65 23 -194 28 -257 10z" transform="translate(0.000000,260.000000) scale(0.100000,-0.100000)"/><path d="M1170 960 c0 -531 1 -526 -112 -536 -64 -6 -103 14 -145 75 -16 22 -31 40 -36 41 -10 0 -187 -110 -187 -117 0 -18 67 -107 100 -133 80 -63 122 -75 265 -75 123 0 133 1 184 28 67 36 106 76 140 147 l26 55 3 478 3 477 -121 0 -120 0 0 -440z" transform="translate(0.000000,260.000000) scale(0.100000,-0.100000)"/></g></svg>